PathFileType	4	(X/Y/Z)	C:/Users/beibeiliu/ov580/test_trc/capture2\sequence.24_training_dense_left.trc
DataRate	CameraRate	NumFrames	NumMarkers	Units	OrigDataRate	OrigDataStartFrame	OrigNumFrames
120	120	16	19	mm	120	101	400
Frame#	Time	ThumbCMC			ThumbMCP			ThumbIP			ThumbTip			IndexMCP			IndexPIP			IndexTip			MiddleMCP			MiddlePIP			MiddleTip			RingMCP			RingPIP			RingTip			PinkyMCP			PinkyPIP			PinkyTip			BackHand1			BackHand2			BackHand3	
		X0	Y0	Z0	X1	Y1	Z1	X2	Y2	Z2	X3	Y3	Z3	X4	Y4	Z4	X5	Y5	Z5	X6	Y6	Z6	X7	Y7	Z7	X8	Y8	Z8	X9	Y9	Z9	X10	Y10	Z10	X11	Y11	Z11	X12	Y12	Z12	X13	Y13	Z13	X14	Y14	Z14	X15	Y15	Z15	X16	Y16	Z16	X17	Y17	Z17	X18	Y18	Z18	
100	0.833333	-88.9209	91.2195	11.9454	-91.2209	48.7118	8.42363	-102.784	27.6886	-5.09601	-125.431	22.4215	-22.5012	-83.8879	66.3943	-57.8829	-82.2807	46.1892	-70.7397	-83.9623	25.2435	-89.3721	-103.712	62.6567	-69.736	-99.2018	44.3395	-83.2192	-93.1615	20.0602	-100.688	-123.452	55.3485	-57.5422	-117.84	27.01	-47.5744	-113.137	34.4678	-12.3864	-141.511	49.5394	-37.2887	-128.871	34.4872	-15.7291	-120.821	56.0457	7.31572	-133.768	102.726	-31.9106	-134.813	123.194	-4.69593	-101.165	115.621	-16.4243	
101	0.841667	-86.6831	86.8072	9.11615	-93.9652	51.6485	12.0235	-105.787	28.7962	-1.53558	-126.522	22.4066	-16.527	-83.9637	60.9643	-55.7227	-81.2836	40.4167	-65.9569	-85.6403	17.1675	-83.9738	-104.251	59.6567	-62.8668	-101.143	33.5149	-79.3993	-99.536	11.6741	-91.9947	-123.093	49.0565	-54.1486	-119.64	21.1378	-36.6715	-113.632	32.4886	-7.11572	-141.023	46.2318	-33.0116	-128.541	33.2976	-11.1026	-121.191	58.7831	11.5352	-133.372	100.785	-31.1088	-137.004	117.886	-8.46798	-100.65	113.05	-20.8715	
102	0.85	-85.867	84.8658	11.4601	-93.9309	46.2362	13.8207	-107.405	25.4768	3.50904	-129.87	20.4894	-12.1108	-82.3315	54.2326	-54.6558	-81.2634	33.0734	-63.4229	-86.8769	13.2995	-75.1367	-105.811	52.5409	-61.962	-98.1837	29.928	-73.2871	-99.4253	4.34074	-85.1409	-126.655	45.118	-49.5782	-119.113	18.9818	-32.7407	-115.788	30.6138	-1.71217	-139.695	46.5532	-29.6386	-127.411	33.6896	-4.95864	-122.231	59.6296	14.4618	-133.533	96.9663	-30.5464	-132.234	117.282	-8.77118	-102.589	110.028	-20.0334	
103	0.858333	-89.5755	83.2794	12.8614	-95.745	47.2363	18.0183	-107.926	21.3953	9.05526	-131.363	16.8942	-8.72775	-85.9198	50.3739	-51.0705	-84.6921	26.2632	-59.9124	-86.9189	3.8602	-70.6307	-105.21	47.9888	-58.2391	-102.692	21.7168	-69.596	-100.983	-0.835069	-77.2367	-123.813	41.029	-46.8573	-120.318	15.9379	-29.7818	-115.322	30.0716	2.21473	-139.759	41.4851	-26.4471	-127.766	32.7567	-0.474921	-119.266	60.0535	16.7699	-132.092	93.0822	-29.2889	-132.188	115.081	-9.04768	-102.187	106.39	-18.4536	
104	0.866667	-88.9781	83.3347	15.2198	-97.3839	44.8554	19.6464	-109.72	18.8679	12.9991	-134.114	14.1675	-6.02573	-85.4263	45.0996	-48.3421	-86.8472	18.8669	-55.7663	-91.0718	-4.38772	-65.4692	-107.773	42.5344	-55.1158	-103.979	17.4486	-64.7514	-102.528	-12.7139	-72.3736	-126.43	33.1612	-44.1511	-122.107	11.8065	-26.4207	-114.379	26.9667	5.28533	-141.257	41.5346	-23.2234	-129.535	30.693	3.10505	-121.959	57.3478	20.9076	-133.714	90.667	-30.4332	-136.003	117.155	-8.26051	-99.2695	104.274	-15.8375	
105	0.875	-88.8785	78.7587	13.131	-96.8429	43.3417	24.3034	-111.583	19.5964	14.2596	-129.854	12.424	3.14455	-83.397	39.7901	-44.633	-87.4667	16.6804	-50.3319	-88.4085	-10.5505	-59.7795	-102.71	37.7038	-52.1599	-103.08	12.6651	-59.844	-101.557	-17.0955	-66.0715	-125.707	33.821	-39.6491	-119.714	7.34154	-19.086	-114.048	25.543	10.9288	-142.926	34.8443	-18.046	-131.483	27.6925	8.38107	-118.647	53.1127	20.5392	-128.886	86.9132	-28.3278	-131.803	113.117	-9.08227	-102.373	97.0695	-18.9805	
106	0.883333	-84.7786	76.3294	17.6138	-94.4916	40.1245	30.3794	-110.86	15.0476	19.5883	-134.556	9.41076	3.32752	-84.2177	32.0157	-42.8917	-84.9759	8.98787	-47.4716	-89.3178	-14.9822	-52.3112	-104.933	29.1724	-50.6086	-103.741	5.42516	-54.6048	-105.673	-25.0161	-59.8525	-124.953	27.989	-35.864	-123.817	4.35368	-14.9117	-117.12	21.0664	13.3017	-138.17	29.0256	-13.7215	-132.482	26.0745	14.3191	-119.948	57.4431	25.0048	-131.717	80.1066	-27.3227	-132.527	109.357	-7.82116	-97.8503	96.0761	-16.4378	
107	0.891667	-86.9031	74.8684	19.2681	-96.5737	35.7624	28.545	-109.729	14.0653	23.5716	-131.901	4.19761	7.85204	-82.4758	30.8998	-38.8254	-85.374	4.98458	-42.8457	-91.116	-20.0405	-46.3623	-105.016	24.19	-46.7601	-102.943	-2.30009	-50.9201	-105.49	-27.4543	-52.2572	-126.015	21.345	-31.8581	-125.544	0.239269	-9.81351	-113.502	20.5476	16.6948	-139.268	26.0503	-12.012	-130.178	23.209	14.5024	-118.002	51.5327	24.8636	-132.168	77.2132	-26.1852	-131.601	105.394	-7.24283	-97.7181	92.4194	-18.1289	
108	0.9	-85.467	72.2284	20.005	-96.5536	36.1254	29.8019	-107.335	9.92587	26.6086	-127.667	0.523497	14.1195	-82.4614	25.9547	-36.5931	-84.572	0.389463	-39.6613	-86.2738	-26.5652	-42.6214	-102.259	19.9429	-44.5048	-102.913	-8.61444	-46.8164	-102.479	-36.0249	-46.2238	-125.637	14.1849	-28.2639	-123.843	-1.79425	-4.43229	-113.72	22.8315	18.8908	-139.553	22.9074	-8.32616	-129.41	22.1476	20.3165	-116.146	47.0969	27.5478	-128.721	74.057	-25.2478	-129.774	100.942	-9.37027	-98.6578	86.3643	-16.0469	
109	0.908333	-85.1592	67.4263	19.328	-92.0265	32.0583	34.0075	-105.815	8.68843	28.3587	-126.169	-4.24504	13.3865	-84.0656	19.8415	-33.4727	-83.2914	-1.63786	-35.1621	-85.8579	-25.9203	-37.6858	-102.551	19.9678	-39.512	-101.815	-11.1277	-43.5152	-105.406	-37.1773	-40.2647	-123.585	12.9975	-25.5059	-120.481	-1.14306	2.45513	-115.745	22.2738	21.451	-140.022	19.0782	-6.71558	-126.32	19.3014	19.3609	-117.714	48.364	28.9124	-128.969	73.1716	-22.3491	-128.028	100.775	-8.49233	-95.8577	86.9128	-14.6722	
110	0.916667	-82.313	68.3245	24.5817	-91.5913	28.52	34.5656	-103.686	5.41718	28.291	-122.173	-4.32876	13.6799	-81.3381	17.7971	-30.2647	-84.5249	-8.89483	-31.6438	-85.8646	-29.5863	-34.3478	-99.6889	13.3529	-37.517	-102.281	-15.1559	-39.0178	-102.334	-46.359	-34.213	-120.819	11.0151	-22.1602	-120.847	-2.74847	5.19109	-116.046	25.045	24.6368	-137.083	19.2923	-6.82626	-128.625	17.8893	20.2584	-117.819	44.8004	27.4168	-127.371	70.3579	-22.0015	-127.48	98.2148	-7.53443	-92.4362	83.876	-13.2812	
111	0.925	-81.8332	66.0882	24.9988	-90.5743	33.7451	37.6006	-99.3659	6.68059	31.5535	-116.251	-9.37269	18.5533	-79.0327	14.8248	-26.8068	-82.383	-9.29082	-28.6711	-87.1224	-36.0265	-29.5135	-96.6176	10.7402	-35.4794	-101.782	-15.7238	-34.7014	-104.486	-47.3972	-27.5278	-122.344	9.15553	-18.2264	-123.047	-3.1054	9.64103	-116.094	24.9105	27.0516	-140.274	20.0142	-7.36678	-132.548	15.7866	22.693	-118.285	48.5567	31.7598	-121.732	64.2956	-23.3951	-122.417	95.6067	-7.44822	-93.6516	81.7753	-10.8291	
112	0.933333	-78.7618	66.7756	28.708	-88.8315	30.6793	38.442	-98.0535	6.15152	32.7426	-115.114	-11.4773	20.1691	-77.0725	13.9517	-23.7558	-78.0625	-14.2114	-24.6776	-85.9094	-40.2464	-25.4353	-100.296	11.9262	-31.6343	-96.978	-16.1962	-30.8594	-101.069	-45.1673	-23.3123	-120.509	6.75864	-15.3311	-121.459	-3.55426	12.1167	-113.671	23.9481	29.4076	-136.398	16.7998	-2.51922	-129.989	15.5203	22.4409	-117.208	46.014	31.5948	-122.508	67.011	-20.3432	-120.775	92.711	-7.42744	-90.3536	79.0145	-11.4541	
113	0.941667	-77.272	62.7117	29.3981	-86.9157	32.325	41.1935	-96.3626	4.03888	36.6051	-114.047	-12.8109	21.9892	-76.6864	13.0844	-20.5113	-79.4951	-16.4845	-21.9361	-85.03	-41.001	-22.2559	-99.2473	5.55397	-30.2559	-96.1979	-18.2374	-28.0713	-103.312	-51.5115	-17.3591	-118.017	4.88205	-13.7636	-118.576	-4.33319	13.0089	-113.466	26.2514	32.3652	-136.565	18.3021	-2.60103	-129.996	17.3099	28.4271	-117.57	47.7185	34.9798	-116.458	63.5293	-20.3863	-122.271	93.6347	-6.60793	-87.8283	79.5115	-7.28375	
114	0.95	-78.7151	66.1838	29.9471	-87.855	28.3783	40.0515	-97.156	2.31517	35.8885	-113.894	-9.87911	25.2728	-75.2163	10.7645	-20.3309	-78.1206	-17.0641	-18.7349	-87.1076	-38.1514	-19.2798	-93.5155	7.20469	-27.1361	-98.1934	-24.4606	-24.1439	-99.1408	-47.9335	-15.9543	-119.606	2.81208	-12.8806	-118.837	-6.11522	13.2351	-111.91	20.6911	33.3518	-133.752	18.7312	-3.20723	-127.104	13.5359	26.0831	-117.728	43.2655	37.132	-118.792	65.4197	-17.0258	-121.595	89.3132	-6.78522	-89.2763	78.809	-8.52156	
115	0.958333	-78.2236	62.4353	28.4309	-86.4027	31.9505	42.6129	-95.8324	0.650425	39.3903	-112.585	-12.1278	26.8719	-74.3492	10.1298	-19.2961	-77.5726	-19.4942	-17.7772	-82.9743	-39.9414	-15.8236	-96.9871	4.68417	-27.0961	-100.364	-26.3608	-21.6572	-100.022	-49.1445	-9.51719	-115.369	6.16844	-12.9541	-115.712	-6.58397	18.3959	-108.98	20.3903	32.7119	-133.802	13.2217	0.0237743	-129.17	12.8465	28.6911	-112.427	40.5453	36.7754	-118.281	61.4697	-17.7905	-117.643	89.4609	-6.14884	-83.7963	74.9125	-7.12353	
